<svg width="1024" height="1024" version="1.1" viewBox="0 0 1024 1024" xmlns="http://www.w3.org/2000/svg" xmlns:cc="http://creativecommons.org/ns#" xmlns:dc="http://purl.org/dc/elements/1.1/" xmlns:rdf="http://www.w3.org/1999/02/22-rdf-syntax-ns#" xmlns:xlink="http://www.w3.org/1999/xlink"><title>Prisma Talentos — Monograma PT (lockup horizontal)</title><path d="m300.4 575.2-18-15.19-15-13.23-1.469-2.018-.0153-22.8-.0153-22.8 9.417-16.41 32.15-54 10.93-18.61.2602 45.05.2602 45.05-.5204 90.13zm-183.5-106.6v-120.7l7.5 7.031 41 38.16 6 6.337 1 51.37 56.08-.0802 6.991-4.321 20.42-36.82v-7.815l-5.198-7.649-6.738-2.815h-67.9l-9.881-8.5-42.29-40 6.507-1.444 119.8.0576 9.824 1.863 7.227 3.429 26.13 24.41 24.91 23.8-12.79 21.88-26.29 44-13.49 21.91-5.851 7.387-9.514 6.105-11.9 3.1h-66.54l-.5383 44.44-53 45.41-.75.0744-.75.0743zm386.5 106.8-3-.7304-6.262-3.263-5.186-6.163-2.245-8.337.525-3.235.525-3.235 3.498-7.372 8.841-5.607 9.902-2.124h21.71l-1.096-8.5-3.748-5.356-7.204-2.377-8.844.9968-4.148 3.737-1.817 4.754-14.45-1.423-.2229-.2217-.2229-.2217 1.938-7.018 6.921-8.086 10.59-4.692h17l10.48 4.647 6.884 7.619 2.306 7.642 1.093 47.5h-15.27v-7h-1.519l-2.586 4.141-10.4 4.84-11-.1852zm20.85-14.43 3.848-2.109 2.804-5.422v-8.099h-17.96l-8.099 3.241-1.942 3.628.0636 5.631 2.793 3.686 7.602 2.613 7.041-1.06zm82.13 13.63-5.021-1.795-6.636-4.725-5.842-8.064-2.98-10.04v-17.56l4.293-11.47 8.78-9.386 10.43-4.617 16 .0598 10.18 5.214 6.609 7.527 4.077 9.102.8792 17.5h-46.28l1.296 5.5 3.878 7 5.021 3.711 7.717 1.035 7.069-1.326 7.403-6.982 12.15 2.752-.5611 4.81-5.635 7-11.39 5.863-16.41.6895zm25.52-41.3v-2.04l-3.938-7.719-6.798-4.202h-8.968l-6.688 4.507-3.469 5.993-1.356 5.5h31.22zm119 42.38-2.5-.448-6.17-1.935-5.058-5.454-2.272-6.798v-40.7h-10v-12h10v-16.74l8.42-1.129 5.503 1.101.2885 8.133.2886 8.133 17.5.5779v11.92h-16.79l-1.214 3.164.006 14.17.006 14.17 2.088 7.519 4.925 3.227 10.98-.9102v12.53l-3.5.9901-10 .9291zm44.4-.6964-4.104-1.343-8.9-6.123-5.3-7.674-3.491-8-.038-19 4.503-11.29 7.73-8.782 11.12-5.446 11.61-1.214 12.43 3.183 7.783 4.913 6.301 7.639 4.145 11-.7894 20-5.773 11.61-7.878 7.117-9.245 4.128-16 .63zm20.47-14.93 3.825-2.532 3.813-7.678v-17l-4.174-8-6.473-4.399-8.83-1.324-9.521 4.724-4.387 6.623-2.343 11.29 2.342 10.47 4.4 6.624 8.984 4.629 8.537-.8876zm47.94 14.95-4.697-1.322-7.864-5.204-4.242-8.763v-4.209l13.41-1.436.7835 2.351 4.879 5.798 10.43 2.288 7.929-2.661 3.005-5.364-1.982-5.636-12.95-3.395-13.51-3.329-8.143-5.899-3.076-7.362.5538-5.365.5538-5.365 5.379-7.763 11.24-5.521 17 .1321 9 4.12 4.728 4.538 3.728 8.21.022 1.75.0219 1.75h-3.721l-9.054 1.241-2.725-5.561-5.126-3.792-10.64-.0824-5.237 3.892-.6445 5.423 2.562 3.087 5.062 1.925 16.02 3.018 8 3.515 6.365 7.249 1.36 9.071-1.274 6.79-4.506 6.687-11.54 5.9-16.41.6171zm-409.8-37.63v-36.97l-27.3-.5564-.2378-13.5h67.54v14h-25v74h-15zm106-7.028v-44h15v88h-15zm99 11v-33h15v6.237l7.32-5.583 7.18-2.567 10-.0682 10.2 4.749 4.54 6.376 2.761 9.173v47.68h-15v-45.1l-2.989-5.779-4.456-3.121-10.05.008-6.62 4.036-1.44 3.446-1.44 3.445v43.06h-15zm-62.27-74.61-4.77-1.466-8.752-8.428-2.528-8.513.8204-.763 14-1.31 3 6.586 7 3.608 12.39-.6957 4.113-3.722v-6.612l-4.029-3.754-20.47-4.561-8.603-4.032-4.891-6.413-.6215-4.534-.6215-4.534 2.409-7.301 5.08-6.037 8.248-4.412h21l10.65 5.899 4.654 8.101 1.318 6.331-14.31.6689-2.655-6.367-6.058-3.133h-9.83l-5.27 4.145v5.545l3.982 3.604 21.52 4.721 8.793 4.497 4.077 5.461.8546 11.81-2.407 7.292-7.146 6.94-10.04 2.98-16.14-.1394zm172.4.2366-3.363-1.217-7.744-6.501-3.182-10.95 1.369-6.467 3.889-7.034 6.732-4.613 9.479-2.853h23.9l-1.347-7.178-2.27-4.982-7.526-3.84h-6.144l-6.915 2.889-3.192 6.694-13.33-.8159-.8204-.7551 2.411-8.046 6.22-7.085 8.189-4.382h21l11 6.212 5.466 8.788 1.017 5.386 1.017 5.386v41.73h-15v-8.212l-5.832 6.243-7.103 2.968-14.56-.1522zm22.79-12.38 3.429-1.748 3.921-5.351.4964-5.167.4964-5.167-22.13.6842-5.513 4.122-1.827 5.48 2.477 5.979 5.224 2.839 10 .077zm-362.9-32.83v-45.58l46.5.6725 10.28 5.409 7.269 8.493 2.955 9.95v10.27l-3.134 10.55-7.912 8.584-10.45 4.627-30.5.8128v31.79h-15zm42.62-2.043 3.421-1.623 4.36-6.123.389-5.565.389-5.565-4.717-7-6.96-3.497-24.5-.003v31h24.2zm34.62 14.4.2635-33.22 15 .1602.277 5.788.223 2.653 5.417-6.438 8.083-3.671 9.584-.044-.2921 7.75-.2921 7.75-12.12 1.161-6.195 3.659-4.596 8.178-.0924 39.49-15.53.01zm49.25.1575.0141-33.14 15 .00089v65.71l-15.03.5756zm93.51.1458v-32.92l15-.658-.004 6.874 5.5-5.146 6.401-3.228 12.6.044 8.083 3.671 5.417 6.438 4.988-5.927 8.99-4.226h11.29l8.184 2.452 7.064 7.064 2.726 7.984.4899 25.29.4899 25.29-15.2-.5881-.5238-45-4.109-6.996-4.891-2.475-7-.022-6.62 4.036-2.88 6.892v44.06h-15v-44.06l-2.758-6.6-5.512-4.336-8.23.008-6.62 4.036-1.44 3.446-1.44 3.445v44.06h-15zm-93.41-45.16-2.589-3.077v-5.978l2.059-3.848 5.841-3.021 4.599.008 6.391 3.897.6458 3.442.6458 3.442-2.417 4.711-4.266 3.456-8.322.0444zm-243.2-11.1-13.86-13.17-23.3-22.66 1.746-1.079 113.2.496-1.14 4.543-23.47 45.03-39.28.016z" fill="#08203b"/><metadata><rdf:RDF><cc:Work rdf:about=""><dc:title>Prisma Talentos — Monograma PT (lockup horizontal)</dc:title><dc:date>09/09/2025</dc:date><dc:creator><cc:Agent><dc:title>Vittor Guilherme Borges de Oliveira</dc:title></cc:Agent></dc:creator></cc:Work></rdf:RDF></metadata></svg>
