<?xml version="1.0" encoding="UTF-8" standalone="no"?>
<!-- Created with Inkscape (http://www.inkscape.org/) -->

<svg
   version="1.1"
   id="svg1"
   width="1024"
   height="1024"
   viewBox="0 0 1024 1024"
   sodipodi:docname="Icon2original.svg"
   inkscape:version="1.4.2 (f4327f4, 2025-05-13)"
   xmlns:inkscape="http://www.inkscape.org/namespaces/inkscape"
   xmlns:sodipodi="http://sodipodi.sourceforge.net/DTD/sodipodi-0.dtd"
   xmlns:xlink="http://www.w3.org/1999/xlink"
   xmlns="http://www.w3.org/2000/svg"
   xmlns:svg="http://www.w3.org/2000/svg"
   xmlns:rdf="http://www.w3.org/1999/02/22-rdf-syntax-ns#"
   xmlns:cc="http://creativecommons.org/ns#"
   xmlns:dc="http://purl.org/dc/elements/1.1/">
  <title
     id="title2">Prisma Talentos — Monograma PT (lockup horizontal)</title>
  <defs
     id="defs1">
    <color-profile
       name="sRGB-IEC61966-2.1"
       xlink:href="../../../../../../WINDOWS/system32/spool/drivers/color/sRGB%20Color%20Space%20Profile.icm"
       id="color-profile1" />
  </defs>
  <sodipodi:namedview
     id="namedview1"
     pagecolor="#ffffff"
     bordercolor="#000000"
     borderopacity="0.25098039"
     inkscape:showpageshadow="2"
     inkscape:pageopacity="0"
     inkscape:pagecheckerboard="0"
     inkscape:deskcolor="#d1d1d1"
     showgrid="true"
     showguides="true"
     inkscape:zoom="1.1145218"
     inkscape:cx="543.73094"
     inkscape:cy="526.23465"
     inkscape:window-width="1920"
     inkscape:window-height="1009"
     inkscape:window-x="-8"
     inkscape:window-y="-8"
     inkscape:window-maximized="1"
     inkscape:current-layer="g1">
    <inkscape:grid
       id="grid1"
       units="px"
       originx="0"
       originy="0"
       spacingx="8"
       spacingy="8"
       empcolor="#0099e5"
       empopacity="0.30196078"
       color="#0099e5"
       opacity="0.14901961"
       empspacing="4"
       enabled="true"
       visible="true" />
  </sodipodi:namedview>
  <g
     inkscape:groupmode="layer"
     inkscape:label="Image"
     id="g1">
    <path
       style="fill:#08203b;fill-opacity:1;stroke:none"
       d="m 300.39723,575.18071 -18,-15.19273 -7.5,-6.6149 -7.5,-6.6149 -0.73469,-1.00886 -0.73468,-1.00886 -0.0153,-22.79659 -0.0153,-22.7966 4.70832,-8.2034 4.70832,-8.20341 16.07524,-27 16.07523,-27 5.46645,-9.30304 5.46644,-9.30304 0.26019,45.05304 0.26016,45.05304 -0.26019,45.06649 -0.26019,45.06648 z m -183.5,-106.6432 V 347.83456 l 3.75,3.51561 3.75,3.5156 20.5,19.08237 20.5,19.08238 3,3.1686 3,3.1686 0.5,25.68637 0.5,25.68637 28.0423,-0.0401 28.04231,-0.0401 3.4955,-2.16034 3.4955,-2.16034 10.2122,-18.40993 10.21219,-18.40988 v -3.90752 -3.90752 l -2.59877,-3.82443 -2.59876,-3.82443 -3.36912,-1.4077 -3.36911,-1.40771 H 210.011 176.06054 l -4.94054,-4.25 -4.94054,-4.25 -21.14478,-20 -21.14477,-20 3.25366,-0.72217 3.25366,-0.72216 59.91204,0.0288 59.91205,0.0288 4.91178,0.9315 4.91179,0.9315 3.61343,1.71469 3.61343,1.71469 13.06274,12.20592 13.06274,12.20592 12.45408,11.89942 12.45408,11.89942 -6.39522,10.94185 -6.39522,10.94186 -13.14335,22 -13.14335,22 -6.7431,10.95406 -6.74309,10.95405 -2.9254,3.69361 -2.92539,3.69361 -4.75691,3.0525 -4.75691,3.05251 -5.95021,1.54983 -5.95021,1.54979 h -33.27077 -33.27077 l -0.26913,22.22234 -0.26913,22.22235 -26.5,22.7033 -26.5,22.7033 -0.75,0.0744 -0.75,0.0743 z m 386.5,106.76788 -3,-0.73035 -3.13088,-1.63137 -3.13089,-1.63138 -2.59281,-3.08138 -2.59282,-3.08139 -1.12243,-4.16841 -1.12244,-4.1684 0.52497,-3.23504 0.52498,-3.23503 1.7491,-3.68596 1.7491,-3.68596 4.42045,-2.80337 4.42045,-2.80336 4.95083,-1.06177 4.95083,-1.06176 h 10.85562 10.85563 l -0.54776,-4.25 -0.54776,-4.25 -1.87391,-2.678 -1.87391,-2.678 -3.60176,-1.18869 -3.60175,-1.18868 -4.422,0.49842 -4.422,0.49842 -2.07418,1.86827 -2.07419,1.86826 -0.90873,2.3769 -0.90873,2.37689 -7.2265,-0.71146 -7.22651,-0.71146 -0.2229,-0.22166 -0.22289,-0.22167 0.96891,-3.50912 0.96892,-3.50912 3.46048,-4.04279 3.46048,-4.04279 5.2935,-2.34585 5.2935,-2.34584 h 8.5 8.5 l 5.24164,2.32353 5.24165,2.32354 3.44181,3.80967 3.44181,3.80967 1.15303,3.82078 1.15303,3.82078 0.54642,23.75 0.54642,23.75 h -7.63291 -7.6329 v -3.5 -3.5 h -0.75945 -0.75946 l -1.2929,2.07026 -1.29289,2.07026 -5.19765,2.41997 -5.19765,2.41997 -5.5,-0.0926 -5.5,-0.0926 z m 20.84804,-14.434 3.84803,-2.10941 1.40197,-2.7111 1.40196,-2.7111 v -4.04966 -4.04966 h -8.97976 -8.97977 l -4.04941,1.62025 -4.04941,1.62026 -0.97082,1.814 -0.97083,1.81401 0.0318,2.81574 0.0318,2.81574 1.39661,1.84323 1.3966,1.84322 3.80091,1.30669 3.8009,1.30669 3.52069,-0.52975 3.52068,-0.52975 z m 82.13105,13.6267 -5.02091,-1.79519 -3.31801,-2.36263 -3.31801,-2.36263 -2.92094,-4.03224 -2.92093,-4.03223 -1.49015,-5.01786 -1.49014,-5.01785 v -8.78099 -8.78098 l 2.14646,-5.73694 2.14646,-5.73693 4.38978,-4.69302 4.38977,-4.69303 5.21377,-2.30857 5.21376,-2.30858 8,0.0299 8,0.0299 5.09002,2.60695 5.09002,2.60695 3.30432,3.76341 3.30433,3.76342 2.03838,4.5508 2.03839,4.55081 0.43959,8.75 0.43959,8.75 H 624.0005 600.85913 l 0.64792,2.75 0.64792,2.75 1.93881,3.5 1.93882,3.5 2.51047,1.85564 2.51048,1.85564 3.8585,0.51753 3.8585,0.51754 3.53443,-0.66307 3.53444,-0.66306 3.70144,-3.49091 3.70143,-3.4909 6.07747,1.3758 6.07747,1.37581 -0.28057,2.40499 -0.28057,2.40499 -2.81768,3.5 -2.81768,3.5 -5.69742,2.93166 -5.69742,2.93167 -8.20433,0.34475 -8.20433,0.34474 z m 25.52091,-41.29747 v -2.03984 l -1.96891,-3.85939 -1.96892,-3.85939 -3.39912,-2.10077 -3.39912,-2.10077 h -4.48408 -4.48408 l -3.34382,2.2534 -3.34382,2.2534 -1.73458,2.9966 -1.73457,2.9966 -0.6779,2.75 -0.6779,2.75 h 15.60841 15.60841 z m 119,42.37634 -2.5,-0.44797 -3.08505,-0.96738 -3.08506,-0.96738 -2.52888,-2.72689 -2.52888,-2.72688 -1.13607,-3.39922 -1.13606,-3.39923 v -20.35077 -20.35078 h -5 -5 v -6 -6 h 5 5 v -8.36833 -8.36833 l 4.20997,-0.56468 4.20997,-0.56467 2.75148,0.55029 2.75149,0.5503 0.28854,8.13271 0.28855,8.13271 8.75,0.28893 8.75,0.28894 v 5.96106 5.96107 h -8.39301 -8.39301 l -0.60699,1.58179 -0.60699,1.58178 0.006,14.16822 0.006,14.16821 1.04404,3.75946 1.04404,3.75945 2.46233,1.61339 2.46234,1.61338 5.48805,-0.45511 5.4872,-0.45512 v 6.26489 6.26488 l -1.75,0.49506 -1.75,0.49505 -5,0.46457 -5,0.46457 z m 44.3963,-0.69639 -4.1037,-1.34271 -4.44999,-3.06168 -4.44999,-3.06168 -2.65004,-3.83702 -2.65004,-3.83702 -1.74547,-4 -1.74548,-4 -0.019,-9.5 -0.019,-9.5 2.25157,-5.64709 2.25157,-5.6471 3.865,-4.39086 3.86499,-4.39087 5.56144,-2.72317 5.56143,-2.72317 5.80559,-0.6068 5.80558,-0.6068 6.21292,1.59167 6.21292,1.59168 3.89149,2.45659 3.8915,2.45659 3.15053,3.81967 3.15053,3.81966 2.07232,5.5 2.07233,5.5 -0.39472,10 -0.39472,10 -2.88672,5.80422 -2.88672,5.80421 -3.93879,3.55846 -3.93878,3.55845 -4.62241,2.06375 -4.6224,2.06375 -8,0.315 -8,0.31499 z m 20.46571,-14.9301 3.82542,-2.53153 1.90628,-3.83924 1.90629,-3.83924 v -8.5 -8.5 l -2.08699,-4 -2.08698,-4 -3.23628,-2.19971 -3.23628,-2.19972 -4.41494,-0.66206 -4.41495,-0.66206 -4.76035,2.36177 -4.76034,2.36178 -2.19335,3.31168 -2.19335,3.31168 -1.17145,5.64285 -1.17146,5.64285 1.17119,5.23339 1.17118,5.23339 2.20025,3.31208 2.20024,3.31208 4.49193,2.31457 4.49193,2.31456 4.2683,-0.44379 4.2683,-0.44379 z m 47.9412,14.94832 -4.69679,-1.32213 -3.93206,-2.60212 -3.93206,-2.60211 -2.12115,-4.38171 -2.12115,-4.38171 v -2.10468 -2.10468 l 6.70389,-0.71793 6.70389,-0.71792 0.39176,1.17528 0.39176,1.17527 2.43952,2.89921 2.43952,2.89921 5.21483,1.14411 5.21483,1.1441 3.96449,-1.33026 3.96448,-1.33026 1.5025,-2.68193 1.50249,-2.68192 -0.99081,-2.81808 -0.99082,-2.81807 -6.47617,-1.69772 -6.47616,-1.69772 -6.7552,-1.66474 -6.7552,-1.66473 -4.07173,-2.94955 -4.07174,-2.94954 -1.53791,-3.68075 -1.53792,-3.68076 0.55375,-5.36533 0.55376,-5.36533 2.68974,-3.88131 2.68975,-3.88131 5.62135,-2.7606 5.62135,-2.76061 8.5,0.0661 8.5,0.066 4.5,2.05991 4.5,2.0599 2.3638,2.26902 2.3638,2.26903 1.86424,4.10503 1.86424,4.10502 0.022,1.75 0.0219,1.74999 h -1.86043 -1.86043 l -4.52724,0.62053 -4.52723,0.62052 -1.36234,-2.78059 -1.36233,-2.78059 -2.56324,-1.89575 -2.56324,-1.89575 -5.31834,-0.0412 -5.31835,-0.0412 -2.61841,1.94591 -2.61842,1.9459 -0.32226,2.71158 -0.32226,2.71157 1.28117,1.54371 1.28116,1.5437 2.53102,0.96229 2.53102,0.9623 8.01007,1.50919 8.01008,1.5092 4,1.75754 4,1.75754 3.1824,3.6246 3.1824,3.6246 0.68014,4.53552 0.68015,4.53552 -0.6369,3.39492 -0.63689,3.39492 -2.25316,3.34347 -2.25316,3.34347 -5.76816,2.94995 -5.76816,2.94995 -8.20433,0.30856 -8.20433,0.30856 z M 453.89723,537.26868 V 500.2969 l -13.65157,-0.27822 -13.65156,-0.27822 -0.11892,-6.75 -0.11892,-6.75 h 33.77048 33.77049 v 7 7 h -12.5 -12.5 v 37 37 h -7.5 -7.5 z m 106,-7.02822 v -44 h 7.5 7.5 v 44 44 h -7.5 -7.5 z m 99,11 v -33 h 7.5 7.5 v 3.11869 3.11869 l 3.6598,-2.79146 3.65979,-2.79147 3.59021,-1.28333 3.5902,-1.28333 5,-0.0341 5,-0.0341 5.0995,2.37449 5.09949,2.3745 2.27017,3.18816 2.27017,3.18816 1.38033,4.5865 1.38034,4.58646 v 23.84107 23.84107 h -7.5 -7.5 V 551.6908 529.14114 l -1.49429,-2.88964 -1.49429,-2.88963 -2.22821,-1.56071 -2.22822,-1.5607 -5.0275,0.004 -5.02749,0.004 -3.31018,2.01815 -3.31017,2.01816 -1.43983,3.44599 -1.43982,3.44546 v 21.53212 21.53212 h -7.5 -7.5 z m -62.27016,-74.60579 -4.77015,-1.46648 -4.37612,-4.21387 -4.37613,-4.21386 -1.26394,-4.25645 -1.26394,-4.25644 0.41022,-0.38148 0.41022,-0.38147 7,-0.65495 7,-0.65496 1.5,3.29288 1.5,3.29287 3.5,1.80406 3.5,1.80406 6.1934,-0.34785 6.1934,-0.34785 2.0566,-1.8612 2.0566,-1.8612 v -3.30605 -3.30606 l -2.01464,-1.87693 -2.01465,-1.87692 -10.23535,-2.28026 -10.23536,-2.28026 -4.30161,-2.01616 -4.30161,-2.01615 -2.44571,-3.20649 -2.44571,-3.20649 -0.62148,-4.53416 -0.62147,-4.53415 1.20473,-3.65038 1.20473,-3.65037 2.53986,-3.01844 2.53985,-3.01845 4.12421,-2.20615 4.12421,-2.20615 h 10.5 10.5 l 5.32486,2.94967 5.32487,2.94968 2.32709,4.05032 2.3271,4.05033 0.65895,3.16555 0.65895,3.16556 -7.15443,0.33444 -7.15443,0.33445 -1.3277,-3.18358 -1.3277,-3.18358 -3.02912,-1.56642 -3.02912,-1.56642 h -4.9148 -4.9148 l -2.63486,2.07258 -2.63486,2.07258 v 2.77243 2.77243 l 1.99121,1.80203 1.99121,1.80202 10.75879,2.36052 10.75879,2.36053 4.3967,2.24863 4.39671,2.24864 2.03851,2.73037 2.03852,2.73036 0.4273,5.90747 0.42731,5.90747 -1.20328,3.64597 -1.20328,3.64597 -3.57275,3.46982 -3.57276,3.46981 -5.01799,1.49019 -5.01799,1.49018 -8.0685,-0.0697 -8.0685,-0.0697 z m 172.40724,0.23665 -3.36293,-1.21699 -3.87183,-3.25061 -3.87184,-3.2506 -1.59104,-5.47298 -1.59104,-5.47298 0.68452,-3.23335 0.68452,-3.23335 1.94456,-3.51718 1.94457,-3.51717 3.36595,-2.30639 3.36595,-2.30638 4.7397,-1.42644 4.73969,-1.42644 h 11.95236 11.95236 l -0.67331,-3.58907 -0.67332,-3.58908 -1.13503,-2.49113 -1.13504,-2.49114 -3.7631,-1.91979 -3.7631,-1.91979 h -3.07196 -3.07196 l -3.4577,1.44472 -3.45769,1.44472 -1.59617,3.3472 -1.59617,3.3472 -6.66401,-0.40793 -6.66402,-0.40793 -0.41022,-0.37754 -0.41022,-0.37755 1.20533,-4.02302 1.20533,-4.02303 3.11021,-3.54233 3.11021,-3.54234 4.09468,-2.19108 4.09468,-2.19109 h 10.5 10.5 l 5.5,3.10608 5.5,3.10608 2.73314,4.39392 2.73313,4.39392 1.01687,5.38649 1.01686,5.38649 v 20.86351 20.86351 h -7.5 -7.5 v -4.10576 -4.10575 l -2.91615,3.12175 -2.91614,3.12174 -3.55174,1.48401 -3.55173,1.48401 -7.28212,-0.0761 -7.28212,-0.0761 z m 22.79184,-12.38241 3.42891,-1.74845 1.96072,-2.67551 1.96072,-2.67551 0.49644,-5.16658 0.49645,-5.16658 -11.06633,0.34209 -11.06633,0.34209 -2.7567,2.06085 -2.7567,2.06084 -0.91332,2.73997 -0.91332,2.73997 1.23832,2.98958 1.23833,2.98958 2.61194,1.41957 2.61195,1.41956 5,0.0385 5,0.0385 z M 428.89723,421.6599 v -45.58057 l 23.25,0.33624 23.25,0.33625 5.13785,2.70433 5.13785,2.70434 3.63468,4.24631 3.63468,4.2463 1.47747,4.97518 1.47747,4.97518 v 5.137 5.137 l -1.56694,5.27647 -1.56695,5.27646 -3.956,4.29177 -3.95601,4.29176 -5.22705,2.31372 -5.22705,2.31373 -15.25,0.4064 -15.25,0.40639 v 15.89315 15.89315 h -7.5 -7.5 z m 42.61856,-2.04273 3.42083,-1.62328 2.17985,-3.06132 2.17985,-3.06132 0.38895,-5.56539 0.38896,-5.5654 -2.35843,-3.5 -2.35844,-3.5 -3.48006,-1.74845 -3.48007,-1.74844 -12.25,-0.002 -12.25,-0.001 v 15.5 15.5 h 12.09887 12.09887 z m 34.61796,14.39901 0.26348,-33.22428 7.5,0.0801 7.5,0.0801 0.1385,2.89422 0.1385,2.89422 0.1115,1.32673 0.1115,1.32672 2.70863,-3.21902 2.70863,-3.21903 4.04137,-1.83574 4.04137,-1.83574 4.79206,-0.022 4.79207,-0.022 -0.29207,7.75 -0.29206,7.75 -6.05838,0.58027 -6.05837,0.58027 -3.09737,1.82966 -3.09737,1.82966 -2.298,4.08875 -2.29801,4.08875 -0.0462,19.74632 -0.0462,19.74633 -7.76348,0.005 -7.76348,0.005 z m 49.2494,0.15748 0.0141,-33.14243 7.5,4.4e-4 7.5,4.5e-4 v 32.85417 32.85417 l -7.51408,0.28782 -7.51409,0.28781 z m 93.51408,0.1458 v -32.92099 l 7.50233,-0.32901 7.50233,-0.329 -0.002,3.43709 -0.002,3.43709 2.75,-2.57293 2.75,-2.57293 3.20034,-1.61416 3.20034,-1.61416 6.29966,0.022 6.29966,0.022 4.04137,1.83574 4.04137,1.83574 2.70863,3.21903 2.70863,3.21902 2.49376,-2.96366 2.49376,-2.96367 4.49534,-2.11306 4.49468,-2.11314 h 5.64488 5.64488 l 4.09202,1.226 4.09202,1.226 3.53192,3.53192 3.53193,3.53193 1.3632,3.99207 1.36321,3.99208 0.4899,25.29406 0.48989,25.29407 -7.59914,-0.29407 -7.59913,-0.29406 -0.26189,-22.5 -0.26189,-22.5 -2.05474,-3.49776 -2.05474,-3.49776 -2.44526,-1.2375 -2.44526,-1.2375 -3.5,-0.011 -3.5,-0.011 -3.31018,2.01815 -3.31017,2.01816 -1.43983,3.44599 -1.43982,3.44598 v 22.03212 22.03212 h -7.5 -7.5 v -22.03212 -22.03212 l -1.37882,-3.29998 -1.37882,-3.29998 -2.75604,-2.1679 -2.75604,-2.1679 -4.11514,0.004 -4.11514,0.004 -3.31018,2.01815 -3.31017,2.01816 -1.43983,3.44599 -1.43982,3.44546 v 22.03212 22.03212 h -7.5 -7.5 z m -93.41111,-45.15573 -2.58889,-3.07672 v -2.98902 -2.98901 l 1.02964,-1.92391 1.02965,-1.92391 2.92069,-1.51035 2.9207,-1.51035 2.29966,0.004 2.29966,0.004 3.19574,1.94856 3.19574,1.94857 0.6458,3.4424 0.64579,3.4424 -1.20857,2.35529 -1.20858,2.3553 -2.13296,1.72776 -2.13296,1.72777 -4.16111,0.0222 -4.1611,0.0222 z M 312.25635,378.06656 298.39723,364.89266 286.74511,353.56508 275.093,342.2375 l 0.8729,-0.53948 0.8729,-0.53948 56.58566,0.248 56.58566,0.248 -0.57013,2.27157 -0.57013,2.27157 -11.73631,22.51363 -11.73632,22.51364 -19.64088,0.008 -19.64088,0.008 z"
       id="path2" />
  </g>
  <metadata
     id="metadata2">
    <rdf:RDF>
      <cc:Work
         rdf:about="">
        <dc:title>Prisma Talentos — Monograma PT (lockup horizontal)</dc:title>
        <dc:date>09/09/2025</dc:date>
        <dc:creator>
          <cc:Agent>
            <dc:title>Vittor Guilherme Borges de Oliveira</dc:title>
          </cc:Agent>
        </dc:creator>
      </cc:Work>
    </rdf:RDF>
  </metadata>
</svg>
